<?xml version="1.0" encoding="UTF-8" standalone="no"?>
<svg
   id="Layer_1"
   data-name="Layer 1"
   viewBox="0 0 64 64"
   version="1.1"
   sodipodi:docname="bell-icon.svg"
   inkscape:version="1.1.1 (3bf5ae0d25, 2021-09-20)"
   xmlns:inkscape="http://www.inkscape.org/namespaces/inkscape"
   xmlns:sodipodi="http://sodipodi.sourceforge.net/DTD/sodipodi-0.dtd"
   xmlns="http://www.w3.org/2000/svg"
   xmlns:svg="http://www.w3.org/2000/svg"
   xmlns:rdf="http://www.w3.org/1999/02/22-rdf-syntax-ns#"
   xmlns:cc="http://creativecommons.org/ns#"
   xmlns:dc="http://purl.org/dc/elements/1.1/">
  <defs
     id="defs11" />
  <sodipodi:namedview
     id="namedview9"
     pagecolor="#ffffff"
     bordercolor="#666666"
     borderopacity="1.0"
     inkscape:pageshadow="2"
     inkscape:pageopacity="0.0"
     inkscape:pagecheckerboard="0"
     showgrid="false"
     inkscape:zoom="11.234375"
     inkscape:cx="32.044506"
     inkscape:cy="32"
     inkscape:window-width="1271"
     inkscape:window-height="1011"
     inkscape:window-x="-12"
     inkscape:window-y="188"
     inkscape:window-maximized="0"
     inkscape:current-layer="Layer_1" />
  <title
     id="title2">confirm notification</title>
  <path
     d="M39.43,56.85a.51.51,0,0,0-.37-.85H25.4a.51.51,0,0,0-.37.85,9.81,9.81,0,0,0,14.4,0Z"
     id="path4"
     style="fill:#5ea31d;fill-opacity:1" />
  <path
     d="M58.51,46.77A22.13,22.13,0,0,1,52.2,31.05l.07-6.31C52.38,13.87,44,4.5,33.18,4a20,20,0,0,0-20.9,19.76l-.07,6.83A22.13,22.13,0,0,1,5.55,46.19l-.82.8A2.42,2.42,0,0,0,4,48.7v.57a2.42,2.42,0,0,0,2.4,2.45l51.15.55A2.42,2.42,0,0,0,60,49.88v-.57a2.42,2.42,0,0,0-.69-1.72ZM42.24,26.82l-8.7,8.52a5.5,5.5,0,0,1-7.76-.06l-3.45-3.49a2.38,2.38,0,0,1,0-3.36l.89-.87a2.38,2.38,0,0,1,3.36,0L28,29a2.38,2.38,0,0,0,3.36,0L38,22.53a2.38,2.38,0,0,1,3.36,0l.87.89A2.38,2.38,0,0,1,42.24,26.82Z"
     id="path6"
     style="fill:#5ea31d;fill-opacity:1" />
  <metadata
     id="metadata828">
    <rdf:RDF>
      <cc:Work
         rdf:about="">
        <dc:title>confirm notification</dc:title>
      </cc:Work>
    </rdf:RDF>
  </metadata>
</svg>
