<?xml version="1.0" encoding="UTF-8"?>
<svg width="542px" height="476px" viewBox="0 0 542 476" version="1.1" xmlns="http://www.w3.org/2000/svg" xmlns:xlink="http://www.w3.org/1999/xlink">
    <!-- Generator: Sketch 61.1 (89650) - https://sketch.com -->
    <title>Group 125</title>
    <desc>Created with Sketch.</desc>
    <g id="Trigger:-Air-Quality" stroke="none" stroke-width="1" fill="none" fill-rule="evenodd">
        <g id="Asthma-Triggers---Air-Quality-&amp;-Pollution" transform="translate(-743.000000, -259.000000)">
            <g id="Group-125" transform="translate(745.000000, 261.000000)">
                <path d="M335.493637,66.5348187 L335.493637,3.85951157 C335.493637,1.24888843 332.953893,-0.608022552 330.466082,0.184287537 L265.212433,20.9626021 C263.611672,21.4727964 262.524614,22.9584656 262.524614,24.6385279 L262.524614,57.0404315" id="Stroke-1" stroke="#263746" stroke-width="3" stroke-linecap="round" stroke-linejoin="round"></path>
                <line x1="335.493637" y1="210.028351" x2="335.493637" y2="228.976423" id="Stroke-3" stroke="#263746" stroke-width="3" stroke-linecap="round" stroke-linejoin="round"></line>
                <line x1="335.493637" y1="240.204909" x2="335.493637" y2="252.985032" id="Stroke-5" stroke="#263746" stroke-width="3" stroke-linecap="round" stroke-linejoin="round"></line>
                <line x1="262.524895" y1="227.868943" x2="262.524895" y2="237.397718" id="Stroke-7" stroke="#263746" stroke-width="3" stroke-linecap="round" stroke-linejoin="round"></line>
                <path d="M358.735271,60.139985 L358.735271,38.0921497 C358.735271,34.6246527 361.547305,31.8126185 365.014802,31.8126185 L429.592636,31.8126185 C433.060834,31.8126185 435.872167,34.6246527 435.872167,38.0921497 L435.872167,66.1907358" id="Stroke-9" stroke="#263746" stroke-width="3" stroke-linecap="round" stroke-linejoin="round"></path>
                <path d="M488.716793,98.4637924 L513.305776,98.4637924 C515.836396,98.4637924 517.886998,100.515097 517.886998,103.045015 L517.886998,170.756298" id="Stroke-11" stroke="#263746" stroke-width="3" stroke-linecap="round" stroke-linejoin="round"></path>
                <path d="M463.765903,70.1938316 C463.765903,66.0203435 467.149186,62.6356565 471.323376,62.6356565 L502.707698,62.6356565 C506.881888,62.6356565 510.265873,66.0203435 510.265873,70.1938316 L510.265873,98.4636521" id="Stroke-13" stroke="#263746" stroke-width="3" stroke-linecap="round" stroke-linejoin="round"></path>
                <line x1="358.735271" y1="188.172453" x2="358.735271" y2="245.819504" id="Stroke-15" stroke="#263746" stroke-width="3" stroke-linecap="round" stroke-linejoin="round"></line>
                <line x1="435.872167" y1="257.224488" x2="435.872167" y2="268.057872" id="Stroke-17" stroke="#263746" stroke-width="3" stroke-linecap="round" stroke-linejoin="round"></line>
                <line x1="335.493637" y1="10.8557009" x2="262.524614" y2="34.0902469" id="Stroke-19" stroke="#263746" stroke-width="3" stroke-linecap="round" stroke-linejoin="round"></line>
                <path d="M399.552995,146.426764 C399.597207,145.989555 399.654051,145.544626 399.738967,145.081451 C397.462391,145.795864 395.261608,146.232371 393.159074,146.44852 C395.152832,146.66537 397.296771,146.675195 399.552995,146.426764" id="Fill-21" fill="#FCE1D3"></path>
                <path d="M125.746278,78.5110524 C125.779262,78.3987675 125.815754,78.2871844 125.848738,78.1748996 C124.620622,78.1643728 123.386892,78.1826191 122.144039,78.2415687 C123.35461,78.2984129 124.55676,78.3847319 125.746278,78.5110524" id="Fill-23" fill="#FCE1D3"></path>
                <path d="M469.648156,93.5321709 C477.962149,108.468865 477.656874,130.716006 458.468093,146.988189 C478.489888,146.988189 488.719741,163.343181 488.416572,178.501638 C490.533843,178.079868 492.597078,177.813893 494.598555,177.700907 C494.531886,162.771932 484.314665,146.988189 464.646567,146.988189 C483.835349,130.716006 484.13922,108.468865 475.826631,93.5321709 C469.119014,81.4818994 455.351486,73.4745849 440.222504,74.7434039 C452.842621,75.7736175 463.868293,83.1472243 469.648156,93.5321709" id="Fill-25" fill="#FCE1D3"></path>
                <path d="M408.51031,159.572866 C408.51031,159.572866 408.216966,159.490056 407.742562,159.304084 C407.694841,159.314611 407.647822,159.326541 407.600802,159.337068 C407.904673,159.406544 408.207141,159.482336 408.51031,159.572866" id="Fill-27" fill="#FCE1D3"></path>
                <path d="M510.924986,281.33654 C508.830873,281.519003 491.423911,290.976898 498.965244,302.926815 C507.224497,316.013616 489.722094,326.646993 481.454419,330.760128 C481.891628,331.428924 482.588496,332.045088 483.621517,332.594582 C483.621517,332.594582 515.790429,319.797616 505.143719,302.926815 C497.697127,291.128482 523.96196,292.473094 510.924986,281.33654" id="Fill-29" fill="#FCE1D3"></path>
                <path d="M526.275099,241.496115 C551.465507,216.504311 534.496456,175.141373 499.970264,177.759014 C530.249983,180.175244 543.734694,218.044017 520.097326,241.496115 C537.839738,249.007271 531.408623,278.358535 512.126504,281.192324 C536.053707,284.461919 545.795823,249.75958 526.275099,241.496115" id="Fill-31" fill="#FCE1D3"></path>
                <path d="M391.281039,146.587121 C389.073238,146.678353 386.993161,146.522557 385.075897,146.174474 C386.525775,166.949982 372.382794,176.758065 357.664354,177.951092 C374.193388,179.282369 392.690916,169.970445 391.281039,146.587121" id="Fill-33" fill="#FCE1D3"></path>
                <path d="M282.827894,103.753883 C281.339418,109.615153 284.263035,114.382348 288.169846,114.699553 C292.77142,115.073601 295.563805,109.360407 295.563805,104.275306 C295.563805,73.6797855 257.186241,54.6987306 227.026526,77.3458864 C223.688156,57.4209368 197.659823,38.6062039 171.260247,44.0246504 C136.880024,51.0810525 123.612866,83.9980629 133.164097,105.227622 C137.05968,113.886189 147.89517,123.090039 158.727852,116.877177 C168.276978,111.400483 167.911351,96.4069442 155.805639,87.3883641 C119.267441,60.1641964 39.8736193,95.4539264 48.0332202,163.483116 C53.8994027,212.391597 119.066732,256.687977 174.113686,206.993502 C174.113686,206.993502 189.530398,236.118793 219.128689,236.226867 C250.209842,236.339854 263.28752,219.445894 270.455505,198.482309 C294.801671,227.837082 346.33832,211.056109 342.756432,173.298919 C360.592883,184.355469 396.114903,177.09906 390.833303,142.35742 C390.833303,142.35742 389.921691,138.047787 387.900563,134.912934 C386.271029,132.387226 383.158633,129.861518 379.983778,131.733167 C377.367541,133.277084 377.707202,136.443517 378.957073,138.833079 C381.705245,144.090116 392.545647,149.276274 405.917372,145.081732 C403.819048,156.521455 414.688223,159.572796 414.688223,159.572796 C401.022453,155.472995 386.661219,173.904555 402.131968,185.28603 C360.592883,184.355469 366.902591,236.227569 401.943189,233.016222 C406.951094,256.203047 442.001517,254.893524 448.284557,235.379818 C448.708432,245.213165 451.442569,256.488671 469.119716,259.598962 C485.586291,262.495912 483.714643,247.667291 474.562023,249.955096 C465.409403,252.243601 442.579082,272.784714 470.229932,280.630619 C497.880081,288.476524 462.475259,297.871961 481.574213,304.440625 C502.723769,311.713176 471.89245,326.351613 483.621306,332.594652 C483.621306,332.594652 515.790219,319.797686 505.143508,302.926885 C497.602176,290.976968 524.644582,292.511762 510.409668,280.904314 C535.579023,286.123455 546.257314,249.955096 526.27552,241.496536 C554.393756,213.598659 529.985833,165.293008 487.260739,180.540591 C470.039048,186.686082 472.230708,198.06475 476.087693,200.37852 C478.947449,202.095075 484.165186,199.985523 486.612294,197.733509 C502.528674,183.090159 494.392934,146.987768 464.646567,146.987768 C483.835349,130.716989 484.13922,108.469146 475.826631,93.5324516 C466.865597,77.4336089 445.304096,68.5455599 424.730701,79.3599961 C411.255815,43.080781 356.340094,52.4109264 352.525918,86.5693864 C338.034854,66.1391549 290.722222,72.6762395 282.827894,103.753883 Z" id="Stroke-35" stroke="#F26B21" stroke-width="3" stroke-linecap="round" stroke-linejoin="round"></path>
                <path d="M408.68779,299.23538 C408.265318,298.883086 407.807056,298.528687 407.325634,298.174288 C412.24301,307.301644 412.622673,324.392804 412.622673,324.392804 L365.171088,326.373228 C365.978838,327.94662 366.401309,329.726335 366.444118,331.484295 L367.086247,331.484295 L417.023538,329.400007 C417.023538,329.400007 416.502817,305.756323 408.68779,299.23538" id="Fill-37" fill="#FCE1D3"></path>
                <path d="M324.088301,280.487386 C315.905542,289.475088 309.210557,300.559709 307.910157,310.647101 L140.892033,310.647101 C135.785177,313.665459 132.580146,315.654304 132.580146,315.654304 L312.310321,315.654304 C313.850729,303.704387 322.961944,290.35512 333.148988,280.750554 C333.148988,280.750554 329.77553,280.641076 324.088301,280.487386" id="Fill-39" fill="#FCE1D3"></path>
                <path d="M195.903056,372.309599 C192.471349,377.691553 186.671836,385.884137 181.858324,388.1951 C174.507876,391.724354 112.718216,390.470974 124.674449,390.470974 C136.631384,390.470974 74.4501298,389.833056 67.156526,386.185903 C65.957885,385.587284 64.7038034,384.611809 63.4441076,383.408256 C66.0645556,386.813295 68.9439607,389.887093 71.5566892,391.193808 C78.850293,394.840259 141.032249,395.478879 129.074612,395.478879 C117.118379,395.478879 178.908039,396.732259 186.259189,393.202303 C193.609637,389.67305 203.26403,372.422585 203.26403,372.422585 L195.903056,372.309599 Z" id="Fill-41" fill="#FCE1D3"></path>
                <path d="M302.041168,362.020024 C271.477929,362.020024 273.495548,420.69027 272.520073,440.163975 C272.254098,445.484874 271.860399,447.656885 264.286785,448.023214 C277.617806,448.444984 278.124491,446.624566 278.448012,440.163975 C279.391205,421.362576 277.546224,366.034208 304.920573,362.232664 C303.994223,362.094413 303.036292,362.020024 302.041168,362.020024" id="Fill-43" fill="#FCE1D3"></path>
                <path d="M200.221321,426.618069 C201.311888,426.627192 202.308416,426.632105 203.202484,426.632807 C202.278941,426.608244 201.288729,426.603332 200.221321,426.618069" id="Fill-45" fill="#FCE1D3"></path>
                <path d="M497.179985,345.72763 C486.759949,331.661845 466.847631,322.90152 452.448501,318.780666 C442.319002,315.882313 437.794624,314.478752 447.923421,317.377105 C462.323253,321.49796 480.83201,331.661845 491.251344,345.72763 C501.669976,359.794117 501.220836,407.864672 500.700115,417.24116 C500.44186,421.883437 497.248759,426.26746 494.089344,429.514598 C493.830387,432.909811 493.603712,434.954799 493.603712,434.954799 C493.603712,434.954799 506.107333,426.619052 506.628054,417.24116 C507.148775,407.864672 507.598617,359.794117 497.179985,345.72763" id="Fill-47" fill="#FCE1D3"></path>
                <path d="M473.158392,361.334034 C472.241867,361.10806 471.280427,360.978231 470.259337,360.978231 C444.211353,360.978231 449.053638,431.90016 448.532215,436.588053 C448.243082,439.196571 445.828255,441.256296 442.964289,442.145452 C447.504809,443.80025 453.974522,440.966461 454.460856,436.588053 C454.960524,432.091044 450.530886,366.662652 473.158392,361.334034" id="Fill-49" fill="#FCE1D3"></path>
                <path d="M278.448573,440.163694 C279.42475,420.689288 277.40643,362.019743 307.968967,362.019743 C338.532205,362.019743 335.658415,429.0503 335.702627,444.330866 C335.715259,448.495933 339.921731,449.919846 346.173191,448.499442 C356.242336,446.210234 417.372323,429.946473 430.568602,435.475099 C435.251582,437.437277 430.568602,435.475099 442.029378,441.727261 C446.556563,444.196125 453.939995,441.276718 454.461418,436.588123 C454.982139,431.90023 450.139152,360.978301 476.187838,360.978301 C501.7937,360.978301 493.603922,434.954378 493.603922,434.954378 C493.603922,434.954378 506.106842,426.618631 506.628265,417.241441 C507.148986,407.864953 507.598125,359.793696 497.179493,345.727911 C486.760159,331.662126 466.847842,322.901099 452.44801,318.780245 C442.319213,315.881892 417.023538,277.103611 367.086949,273.977881 C328.597802,271.569371 240.418391,268.768565 201.346766,273.977881 C162.27444,279.187197 108.094886,322.948119 108.094886,322.948119 C108.094886,322.948119 51.2162856,328.994659 20.50848,354.641926 C-2.25446958,373.653157 -0.785643175,390.673438 0.77722181,407.864953 C2.34078858,425.056467 3.38223071,429.396979 8.07082567,435.475099 C10.3214355,438.392401 14.3222856,438.600829 14.8430067,435.475099 C15.3644295,432.349369 13.8015645,422.10899 28.9094933,422.280224 C44.0167203,422.451458 185.172833,426.923905 206.034659,426.618631 C216.591542,426.464239 219.670253,428.101493 224.26902,433.391513 C229.241134,439.111024 229.936599,445.894433 253.671514,447.457298 C277.40643,449.020163 278.054173,448.026442 278.448573,440.163694 Z" id="Stroke-51" stroke="#263746" stroke-width="3" stroke-linecap="round" stroke-linejoin="round"></path>
                <path d="M8.07054496,435.47531 C17.6217764,449.033006 176.240291,447.990862 209.681532,447.990862 C232.864146,447.990862 232.382093,442.653822 232.382093,442.653822" id="Stroke-53" stroke="#263746" stroke-width="3" stroke-linecap="round" stroke-linejoin="round"></path>
                <path d="M334.190781,336.492761 C334.190781,342.2235 352.423738,342.744221 361.280909,340.139914 C370.137378,337.534905 367.792729,317.714521 352.945863,321.906255 C341.805801,325.050934 334.190781,329.199158 334.190781,336.492761 Z" id="Stroke-55" stroke="#263746" stroke-width="3" stroke-linecap="round" stroke-linejoin="round"></path>
                <path d="M345.130766,341.641654 C350.861505,351.60062 352.389281,374.593052 350.322538,447.232237" id="Stroke-57" stroke="#263746" stroke-width="3" stroke-linecap="round" stroke-linejoin="round"></path>
                <path d="M420.149338,434.531626 C423.522095,386.103163 427.442942,338.119629 414.93932,338.375779 L361.280488,340.140055" id="Stroke-59" stroke="#263746" stroke-width="3" stroke-linecap="round" stroke-linejoin="round"></path>
                <path d="M398.789528,350.037685 C401.915258,352.121973 411.292448,352.121973 412.334592,348.996243" id="Stroke-61" stroke="#263746" stroke-width="3" stroke-linecap="round" stroke-linejoin="round"></path>
                <path d="M367.086738,273.978092 C343.345507,273.978092 322.730005,299.235169 319.604275,324.492948 L108.094676,322.947627" id="Stroke-63" stroke="#263746" stroke-width="3" stroke-linecap="round" stroke-linejoin="round"></path>
                <path d="M199.262549,282.313138 C177.90316,287.523156 132.579374,315.654725 132.579374,315.654725 L312.310952,315.654725 C313.850658,303.704107 322.961874,290.35484 333.148918,280.750273 C333.148918,280.750273 220.621937,277.103822 199.262549,282.313138 Z" id="Stroke-65" stroke="#263746" stroke-width="3" stroke-linecap="round" stroke-linejoin="round"></path>
                <path d="M335.616308,331.484365 C334.190992,322.947908 345.162627,282.210959 368.538932,284.397005 C382.582962,285.710738 400.873465,292.714506 408.68779,299.23545 C416.502115,305.756393 417.023538,329.400077 417.023538,329.400077 L367.086949,331.484365" id="Stroke-67" stroke="#263746" stroke-width="3" stroke-linecap="round" stroke-linejoin="round"></path>
                <path d="M422.504794,307.897946 C425.358233,315.654725 426.9218,328.678366 426.9218,328.678366 L443.591892,327.636924 C443.591892,327.636924 428.507823,307.956194 422.504794,307.897946 Z" id="Stroke-69" stroke="#263746" stroke-width="3" stroke-linecap="round" stroke-linejoin="round"></path>
                <path d="M57.0409929,391.193948 C52.8738208,384.421767 47.663803,375.617932 43.4959291,371.683751 C39.328757,367.750973 28.3880003,364.723493 24.7415493,368.060459 C21.0943964,371.397424 23.6994053,379.73247 33.5980181,384.421767 C43.4959291,389.10966 57.0409929,391.193948 57.0409929,391.193948 Z" id="Stroke-71" stroke="#263746" stroke-width="3" stroke-linecap="round" stroke-linejoin="round"></path>
                <path d="M186.259049,393.202654 C193.610199,389.673401 203.26389,372.422936 203.26389,372.422936 L54.885755,370.144255 C54.885755,370.144255 64.262945,387.547006 71.5565488,391.194159 C78.8494509,394.84061 141.031406,395.478528 129.075173,395.478528 C117.118941,395.478528 178.907899,396.731908 186.259049,393.202654 Z" id="Stroke-73" stroke="#263746" stroke-width="3" stroke-linecap="round" stroke-linejoin="round"></path>
                <path d="M201.31936,395.051809 C206.171476,388.441207 212.264664,379.831142 216.877974,376.1376 C221.492007,372.445504 232.990185,370.252102 236.457947,373.989063 C239.925709,377.724578 236.548404,386.071956 225.981572,390.060026 C215.415464,394.04665 201.31936,395.051809 201.31936,395.051809 Z" id="Stroke-75" stroke="#263746" stroke-width="3" stroke-linecap="round" stroke-linejoin="round" transform="translate(219.544678, 383.551809) rotate(3.000000) translate(-219.544678, -383.551809) "></path>
                <path d="M493.455917,434.922307 C489.916136,451.250632 482.83447,462.391396 474.675571,462.391396 C465.967178,462.391396 457.780909,449.697592 454.469909,431.550954" id="Stroke-77" stroke="#263746" stroke-width="3" stroke-linecap="round" stroke-linejoin="round"></path>
                <path d="M435.381482,437.990491 C438.900209,452.62963 442.033658,462.391396 452.44808,462.391396 L474.675571,462.391396" id="Stroke-79" stroke="#263746" stroke-width="3" stroke-linecap="round" stroke-linejoin="round"></path>
                <path d="M485.586221,411.211814 C485.586221,431.19852 480.70183,447.400524 474.675641,447.400524 C468.650154,447.400524 463.765763,431.19852 463.765763,411.211814 C463.765763,391.225107 468.650154,375.022401 474.675641,375.022401 C480.70183,375.022401 485.586221,391.225107 485.586221,411.211814 Z" id="Stroke-81" stroke="#263746" stroke-width="3" stroke-linecap="round" stroke-linejoin="round"></path>
                <path d="M477.801511,411.211814 C477.801511,415.304597 476.402161,418.622615 474.675781,418.622615 C472.949402,418.622615 471.550051,415.304597 471.550051,411.211814 C471.550051,407.118328 472.949402,403.800311 474.675781,403.800311 C476.402161,403.800311 477.801511,407.118328 477.801511,411.211814 Z" id="Stroke-83" stroke="#263746" stroke-width="3" stroke-linecap="round" stroke-linejoin="round"></path>
                <path d="M335.493637,416.980238 C335.493637,447.597514 322.039103,472.418084 304.846184,472.418084 C293.293475,472.418084 283.210294,461.211352 277.838165,444.569331" id="Stroke-85" stroke="#263746" stroke-width="3" stroke-linecap="round" stroke-linejoin="round"></path>
                <path d="M247.495566,446.87861 C253.030508,462.239882 261.663109,472.418505 272.673342,472.418505 L304.846465,472.418505" id="Stroke-87" stroke="#263746" stroke-width="3" stroke-linecap="round" stroke-linejoin="round"></path>
                <path d="M85.5295583,446.881347 C81.104131,454.608651 75.4646236,459.238297 69.3233432,459.238297 C62.535723,459.238297 56.3621607,453.584052 51.7626918,444.343709" id="Stroke-89" stroke="#263746" stroke-width="3" stroke-linecap="round" stroke-linejoin="round"></path>
                <path d="M24.8042884,441.746139 C29.5013047,452.513556 36.1738329,459.238718 43.575511,459.238718 L69.3238344,459.238718" id="Stroke-91" stroke="#263746" stroke-width="3" stroke-linecap="round" stroke-linejoin="round"></path>
                <path d="M322.961593,416.980238 C322.961593,438.630164 315.783783,456.180288 306.929419,456.180288 C298.075758,456.180288 290.897947,438.630164 290.897947,416.980238 C290.897947,395.330312 298.075758,377.780188 306.929419,377.780188 C315.783783,377.780188 322.961593,395.330312 322.961593,416.980238 Z" id="Stroke-93" stroke="#263746" stroke-width="3" stroke-linecap="round" stroke-linejoin="round"></path>
                <path d="M311.097855,416.980238 C311.097855,421.413385 309.23182,425.007202 306.929981,425.007202 C304.628141,425.007202 302.762107,421.413385 302.762107,416.980238 C302.762107,412.547091 304.628141,408.952572 306.929981,408.952572 C309.23182,408.952572 311.097855,412.547091 311.097855,416.980238 Z" id="Stroke-95" stroke="#263746" stroke-width="3" stroke-linecap="round" stroke-linejoin="round"></path>
                <path d="M277.071049,341.19076 C272.237887,343.056093 267.036992,345.633732 262.182777,349.182636 C260.379201,350.501281 258.623347,351.953265 256.951706,353.552622 C253.490525,356.865026 250.390761,360.809032 247.978742,365.502539" id="Stroke-97" stroke="#263746" stroke-width="3" stroke-linecap="round" stroke-linejoin="round"></path>
                <path d="M296.047963,336.471497 C296.047963,336.471497 293.881567,336.655364 290.423193,337.337495" id="Stroke-99" stroke="#263746" stroke-width="3" stroke-linecap="round" stroke-linejoin="round"></path>
                <polyline id="Stroke-101" stroke="#263746" stroke-width="3" stroke-linecap="round" stroke-linejoin="round" points="370.741611 49.7037383 370.741611 41.1083318 424.910637 41.1083318 424.910637 59.145492"></polyline>
                <line x1="506.846589" y1="155.289479" x2="506.846589" y2="162.307283" id="Stroke-103" stroke="#263746" stroke-width="3" stroke-linecap="round" stroke-linejoin="round"></line>
                <polyline id="Stroke-105" stroke="#263746" stroke-width="3" stroke-linecap="round" stroke-linejoin="round" points="489.121159 126.516482 506.846729 126.516482 506.846729 144.762773"></polyline>
                <polyline id="Stroke-107" stroke="#263746" stroke-width="3" stroke-linecap="round" stroke-linejoin="round" points="323.953279 57.0402209 323.953279 29.7072773 311.103679 34.0905978"></polyline>
                <polyline id="Stroke-109" stroke="#263746" stroke-width="3" stroke-linecap="round" stroke-linejoin="round" points="283.903864 57.7420013 283.903864 41.1084019 275.203892 44.0755295"></polyline>
                <polyline id="Stroke-111" stroke="#263746" stroke-width="3" stroke-linecap="round" stroke-linejoin="round" points="301.767052 50.8284116 301.767052 36.7247306 294.360462 39.0027098"></polyline>
                <line x1="301.767052" y1="64.0580251" x2="301.767052" y2="58.2100889" id="Stroke-113" stroke="#263746" stroke-width="3" stroke-linecap="round" stroke-linejoin="round"></line>
                <path d="M231.554062,196.251139 C262.188883,200.905346 271.514141,177.285523 270.020752,166.732149 C269.655826,164.160826 267.904182,161.223173 264.953196,160.916495 C260.758654,160.481391 258.914375,163.987486 258.898234,167.333575 C258.850513,177.371842 279.78743,198.109453 307.391963,176.073548" id="Stroke-115" stroke="#FDA683" stroke-width="3" stroke-linecap="round" stroke-linejoin="round"></path>
                <path d="M103.297516,198.229037 C115.071987,204.204697 129.919556,205.778089 147.0437,199.911204" id="Stroke-117" stroke="#FDA683" stroke-width="3" stroke-linecap="round" stroke-linejoin="round"></path>
                <path d="M74.9658682,160.521322 C77.2080567,170.639592 82.2349098,180.381006 89.5972881,188.031816" id="Stroke-119" stroke="#FDA683" stroke-width="3" stroke-linecap="round" stroke-linejoin="round"></path>
                <path d="M75.5271522,135.056448 C74.5769415,138.297972 73.993762,141.663711 73.7586656,145.086294" id="Stroke-121" stroke="#FDA683" stroke-width="3" stroke-linecap="round" stroke-linejoin="round"></path>
                <path d="M448.602955,125.511111 C455.102143,103.478014 432.181995,85.8998177 409.810639,99.4722509 C401.078385,104.770693 403.912876,110.467746 406.016814,111.841131 C409.424659,114.064371 413.089357,111.298654 414.49783,107.988356 C419.230637,96.873558 408.120751,83.1993666 392.539121,86.8872227" id="Stroke-123" stroke="#FDA683" stroke-width="3" stroke-linecap="round" stroke-linejoin="round"></path>
            </g>
        </g>
    </g>
</svg>